<mxfile host="app.diagrams.net" modified="2022-03-04T08:30:29.254Z" agent="5.0 (Windows NT 10.0; Win64; x64) AppleWebKit/537.36 (KHTML, like Gecko) Chrome/98.0.4758.102 Safari/537.36" etag="tMaFS5foISR599GYT1U-" version="16.6.5" type="github">
  <diagram id="sTL-vzNnqz4Gg7EL2ALE" name="Page-1">
    <mxGraphModel dx="1422" dy="794" grid="1" gridSize="10" guides="1" tooltips="1" connect="1" arrows="1" fold="1" page="1" pageScale="1" pageWidth="827" pageHeight="1169" math="0" shadow="0">
      <root>
        <mxCell id="0" />
        <mxCell id="1" parent="0" />
        <mxCell id="R0VVPQPp4cUmf98DWxHz-1" value="&lt;font style=&quot;font-size: 17px&quot;&gt;Začátek&lt;/font&gt;" style="ellipse;whiteSpace=wrap;html=1;fillColor=#f8cecc;strokeColor=#b85450;" vertex="1" parent="1">
          <mxGeometry x="30" y="40" width="230" height="80" as="geometry" />
        </mxCell>
        <mxCell id="R0VVPQPp4cUmf98DWxHz-2" value="" style="endArrow=classic;html=1;rounded=0;fontSize=17;exitX=1;exitY=0.5;exitDx=0;exitDy=0;" edge="1" parent="1" source="R0VVPQPp4cUmf98DWxHz-1">
          <mxGeometry width="50" height="50" relative="1" as="geometry">
            <mxPoint x="390" y="430" as="sourcePoint" />
            <mxPoint x="370" y="80" as="targetPoint" />
          </mxGeometry>
        </mxCell>
        <mxCell id="R0VVPQPp4cUmf98DWxHz-3" value="Vložit kartu" style="rounded=0;whiteSpace=wrap;html=1;fontSize=17;fillColor=#e1d5e7;strokeColor=#9673a6;" vertex="1" parent="1">
          <mxGeometry x="370" y="45" width="140" height="70" as="geometry" />
        </mxCell>
        <mxCell id="R0VVPQPp4cUmf98DWxHz-4" value="" style="endArrow=classic;html=1;rounded=0;fontSize=17;exitX=0.5;exitY=1;exitDx=0;exitDy=0;" edge="1" parent="1" source="R0VVPQPp4cUmf98DWxHz-3">
          <mxGeometry width="50" height="50" relative="1" as="geometry">
            <mxPoint x="450" y="180" as="sourcePoint" />
            <mxPoint x="440" y="200" as="targetPoint" />
          </mxGeometry>
        </mxCell>
        <mxCell id="R0VVPQPp4cUmf98DWxHz-5" value="Vložit pin" style="rounded=0;whiteSpace=wrap;html=1;fontSize=17;fillColor=#e1d5e7;strokeColor=#9673a6;" vertex="1" parent="1">
          <mxGeometry x="370" y="200" width="140" height="70" as="geometry" />
        </mxCell>
        <mxCell id="R0VVPQPp4cUmf98DWxHz-6" value="" style="endArrow=classic;html=1;rounded=0;fontSize=17;exitX=0.5;exitY=1;exitDx=0;exitDy=0;entryX=0.5;entryY=0;entryDx=0;entryDy=0;" edge="1" parent="1" source="R0VVPQPp4cUmf98DWxHz-5" target="R0VVPQPp4cUmf98DWxHz-8">
          <mxGeometry width="50" height="50" relative="1" as="geometry">
            <mxPoint x="400" y="420" as="sourcePoint" />
            <mxPoint x="450" y="370" as="targetPoint" />
          </mxGeometry>
        </mxCell>
        <mxCell id="R0VVPQPp4cUmf98DWxHz-8" value="Je pin správný?" style="rhombus;whiteSpace=wrap;html=1;fontSize=17;fillColor=#dae8fc;strokeColor=#6c8ebf;" vertex="1" parent="1">
          <mxGeometry x="345" y="320" width="190" height="100" as="geometry" />
        </mxCell>
        <mxCell id="R0VVPQPp4cUmf98DWxHz-9" value="" style="endArrow=none;html=1;rounded=0;fontSize=17;exitX=1;exitY=0.5;exitDx=0;exitDy=0;" edge="1" parent="1" source="R0VVPQPp4cUmf98DWxHz-8">
          <mxGeometry width="50" height="50" relative="1" as="geometry">
            <mxPoint x="390" y="430" as="sourcePoint" />
            <mxPoint x="590" y="370" as="targetPoint" />
          </mxGeometry>
        </mxCell>
        <mxCell id="R0VVPQPp4cUmf98DWxHz-10" value="Ne" style="text;html=1;strokeColor=none;fillColor=none;align=center;verticalAlign=middle;whiteSpace=wrap;rounded=0;fontSize=17;" vertex="1" parent="1">
          <mxGeometry x="580" y="355" width="60" height="30" as="geometry" />
        </mxCell>
        <mxCell id="R0VVPQPp4cUmf98DWxHz-11" value="" style="endArrow=classic;html=1;rounded=0;fontSize=17;edgeStyle=orthogonalEdgeStyle;entryX=0.5;entryY=1;entryDx=0;entryDy=0;" edge="1" parent="1" target="R0VVPQPp4cUmf98DWxHz-12">
          <mxGeometry width="50" height="50" relative="1" as="geometry">
            <mxPoint x="630" y="370" as="sourcePoint" />
            <mxPoint x="670" y="280" as="targetPoint" />
            <Array as="points">
              <mxPoint x="670" y="370" />
            </Array>
          </mxGeometry>
        </mxCell>
        <mxCell id="R0VVPQPp4cUmf98DWxHz-12" value="Napsat hlášku &quot;zkuste to znovu&quot;" style="rounded=0;whiteSpace=wrap;html=1;fontSize=17;fillColor=#fff2cc;strokeColor=#d6b656;" vertex="1" parent="1">
          <mxGeometry x="600" y="200" width="140" height="70" as="geometry" />
        </mxCell>
        <mxCell id="R0VVPQPp4cUmf98DWxHz-13" value="" style="endArrow=classic;html=1;rounded=0;fontSize=17;entryX=1;entryY=0.5;entryDx=0;entryDy=0;exitX=0;exitY=0.5;exitDx=0;exitDy=0;" edge="1" parent="1" source="R0VVPQPp4cUmf98DWxHz-12" target="R0VVPQPp4cUmf98DWxHz-5">
          <mxGeometry width="50" height="50" relative="1" as="geometry">
            <mxPoint x="560" y="270" as="sourcePoint" />
            <mxPoint x="610" y="220" as="targetPoint" />
          </mxGeometry>
        </mxCell>
        <mxCell id="R0VVPQPp4cUmf98DWxHz-14" value="" style="endArrow=classic;html=1;rounded=0;fontSize=17;exitX=0.5;exitY=1;exitDx=0;exitDy=0;" edge="1" parent="1" source="R0VVPQPp4cUmf98DWxHz-8">
          <mxGeometry width="50" height="50" relative="1" as="geometry">
            <mxPoint x="440" y="470" as="sourcePoint" />
            <mxPoint x="440" y="470" as="targetPoint" />
          </mxGeometry>
        </mxCell>
        <mxCell id="R0VVPQPp4cUmf98DWxHz-15" value="Zvolit možnost vybrání peněz" style="rounded=0;whiteSpace=wrap;html=1;fontSize=17;fillColor=#e1d5e7;strokeColor=#9673a6;" vertex="1" parent="1">
          <mxGeometry x="370" y="470" width="140" height="70" as="geometry" />
        </mxCell>
        <mxCell id="R0VVPQPp4cUmf98DWxHz-17" value="Vložit částku pro výběr" style="rounded=0;whiteSpace=wrap;html=1;fontSize=17;fillColor=#e1d5e7;strokeColor=#9673a6;" vertex="1" parent="1">
          <mxGeometry x="370" y="590" width="140" height="70" as="geometry" />
        </mxCell>
        <mxCell id="R0VVPQPp4cUmf98DWxHz-19" value="" style="endArrow=classic;html=1;rounded=0;fontSize=17;exitX=0.5;exitY=1;exitDx=0;exitDy=0;" edge="1" parent="1" source="R0VVPQPp4cUmf98DWxHz-15">
          <mxGeometry width="50" height="50" relative="1" as="geometry">
            <mxPoint x="440" y="590" as="sourcePoint" />
            <mxPoint x="440" y="590" as="targetPoint" />
          </mxGeometry>
        </mxCell>
        <mxCell id="R0VVPQPp4cUmf98DWxHz-25" value="" style="endArrow=classic;html=1;rounded=0;fontSize=17;exitX=0.5;exitY=1;exitDx=0;exitDy=0;" edge="1" parent="1">
          <mxGeometry width="50" height="50" relative="1" as="geometry">
            <mxPoint x="440" y="660" as="sourcePoint" />
            <mxPoint x="440" y="710" as="targetPoint" />
          </mxGeometry>
        </mxCell>
        <mxCell id="R0VVPQPp4cUmf98DWxHz-28" value="Je na účtě dostatek peněz?" style="rhombus;whiteSpace=wrap;html=1;fontSize=17;fillColor=#dae8fc;strokeColor=#6c8ebf;" vertex="1" parent="1">
          <mxGeometry x="345" y="710" width="190" height="100" as="geometry" />
        </mxCell>
        <mxCell id="R0VVPQPp4cUmf98DWxHz-29" value="" style="endArrow=none;html=1;rounded=0;fontSize=17;exitX=1;exitY=0.5;exitDx=0;exitDy=0;" edge="1" parent="1">
          <mxGeometry width="50" height="50" relative="1" as="geometry">
            <mxPoint x="535" y="760" as="sourcePoint" />
            <mxPoint x="590" y="760" as="targetPoint" />
          </mxGeometry>
        </mxCell>
        <mxCell id="R0VVPQPp4cUmf98DWxHz-30" value="Ne" style="text;html=1;strokeColor=none;fillColor=none;align=center;verticalAlign=middle;whiteSpace=wrap;rounded=0;fontSize=17;" vertex="1" parent="1">
          <mxGeometry x="580" y="745" width="60" height="30" as="geometry" />
        </mxCell>
        <mxCell id="R0VVPQPp4cUmf98DWxHz-31" value="" style="endArrow=classic;html=1;rounded=0;fontSize=17;edgeStyle=orthogonalEdgeStyle;entryX=0.5;entryY=1;entryDx=0;entryDy=0;" edge="1" parent="1" target="R0VVPQPp4cUmf98DWxHz-32">
          <mxGeometry width="50" height="50" relative="1" as="geometry">
            <mxPoint x="630" y="760" as="sourcePoint" />
            <mxPoint x="670" y="670" as="targetPoint" />
            <Array as="points">
              <mxPoint x="670" y="760" />
            </Array>
          </mxGeometry>
        </mxCell>
        <mxCell id="R0VVPQPp4cUmf98DWxHz-32" value="Napsat hlášku &quot;nedostatek peněz&quot;" style="rounded=0;whiteSpace=wrap;html=1;fontSize=17;fillColor=#fff2cc;strokeColor=#d6b656;" vertex="1" parent="1">
          <mxGeometry x="600" y="590" width="140" height="70" as="geometry" />
        </mxCell>
        <mxCell id="R0VVPQPp4cUmf98DWxHz-33" value="" style="endArrow=classic;html=1;rounded=0;fontSize=17;entryX=1;entryY=0.5;entryDx=0;entryDy=0;exitX=0;exitY=0.5;exitDx=0;exitDy=0;" edge="1" parent="1" source="R0VVPQPp4cUmf98DWxHz-32">
          <mxGeometry width="50" height="50" relative="1" as="geometry">
            <mxPoint x="560" y="660" as="sourcePoint" />
            <mxPoint x="510" y="625" as="targetPoint" />
          </mxGeometry>
        </mxCell>
        <mxCell id="R0VVPQPp4cUmf98DWxHz-36" value="" style="endArrow=classic;html=1;rounded=0;fontSize=17;exitX=0.5;exitY=1;exitDx=0;exitDy=0;" edge="1" parent="1">
          <mxGeometry width="50" height="50" relative="1" as="geometry">
            <mxPoint x="440" y="810" as="sourcePoint" />
            <mxPoint x="440" y="860" as="targetPoint" />
          </mxGeometry>
        </mxCell>
        <mxCell id="R0VVPQPp4cUmf98DWxHz-37" value="Je peníze možné vybrat?" style="rhombus;whiteSpace=wrap;html=1;fontSize=17;fillColor=#dae8fc;strokeColor=#6c8ebf;" vertex="1" parent="1">
          <mxGeometry x="345" y="860" width="190" height="100" as="geometry" />
        </mxCell>
        <mxCell id="R0VVPQPp4cUmf98DWxHz-42" value="" style="endArrow=none;html=1;rounded=0;fontSize=17;exitX=1;exitY=0.5;exitDx=0;exitDy=0;" edge="1" parent="1">
          <mxGeometry width="50" height="50" relative="1" as="geometry">
            <mxPoint x="290" y="909.5" as="sourcePoint" />
            <mxPoint x="345" y="909.5" as="targetPoint" />
          </mxGeometry>
        </mxCell>
        <mxCell id="R0VVPQPp4cUmf98DWxHz-43" value="Ne" style="text;html=1;strokeColor=none;fillColor=none;align=center;verticalAlign=middle;whiteSpace=wrap;rounded=0;fontSize=17;" vertex="1" parent="1">
          <mxGeometry x="230" y="895" width="60" height="30" as="geometry" />
        </mxCell>
        <mxCell id="R0VVPQPp4cUmf98DWxHz-47" value="Napsat hlášku &quot;váš účet je blokován&quot;" style="rounded=0;whiteSpace=wrap;html=1;fontSize=17;fillColor=#fff2cc;strokeColor=#d6b656;" vertex="1" parent="1">
          <mxGeometry x="80" y="1010" width="140" height="70" as="geometry" />
        </mxCell>
        <mxCell id="R0VVPQPp4cUmf98DWxHz-49" value="&lt;font style=&quot;font-size: 17px&quot;&gt;Konec&lt;/font&gt;" style="ellipse;whiteSpace=wrap;html=1;fillColor=#f8cecc;strokeColor=#b85450;" vertex="1" parent="1">
          <mxGeometry x="35" y="1340" width="230" height="80" as="geometry" />
        </mxCell>
        <mxCell id="R0VVPQPp4cUmf98DWxHz-50" value="" style="endArrow=classic;html=1;rounded=0;fontSize=17;edgeStyle=orthogonalEdgeStyle;" edge="1" parent="1" source="R0VVPQPp4cUmf98DWxHz-43">
          <mxGeometry width="50" height="50" relative="1" as="geometry">
            <mxPoint x="210" y="960" as="sourcePoint" />
            <mxPoint x="150" y="1010" as="targetPoint" />
          </mxGeometry>
        </mxCell>
        <mxCell id="R0VVPQPp4cUmf98DWxHz-51" value="" style="endArrow=classic;html=1;rounded=0;fontSize=17;exitX=0.5;exitY=1;exitDx=0;exitDy=0;entryX=0.5;entryY=0;entryDx=0;entryDy=0;" edge="1" parent="1" source="R0VVPQPp4cUmf98DWxHz-47" target="R0VVPQPp4cUmf98DWxHz-49">
          <mxGeometry width="50" height="50" relative="1" as="geometry">
            <mxPoint x="160" y="1180" as="sourcePoint" />
            <mxPoint x="210" y="1130" as="targetPoint" />
          </mxGeometry>
        </mxCell>
        <mxCell id="R0VVPQPp4cUmf98DWxHz-52" value="" style="endArrow=classic;html=1;rounded=0;fontSize=17;exitX=0.5;exitY=1;exitDx=0;exitDy=0;" edge="1" parent="1" source="R0VVPQPp4cUmf98DWxHz-37">
          <mxGeometry width="50" height="50" relative="1" as="geometry">
            <mxPoint x="430" y="1010" as="sourcePoint" />
            <mxPoint x="440" y="1010" as="targetPoint" />
          </mxGeometry>
        </mxCell>
        <mxCell id="R0VVPQPp4cUmf98DWxHz-54" value="Aktualizovat pozůstatek na účtě" style="rounded=0;whiteSpace=wrap;html=1;fontSize=17;fillColor=#d5e8d4;strokeColor=#82b366;" vertex="1" parent="1">
          <mxGeometry x="335" y="1010" width="210" height="70" as="geometry" />
        </mxCell>
        <mxCell id="R0VVPQPp4cUmf98DWxHz-56" value="" style="endArrow=classic;html=1;rounded=0;fontSize=17;exitX=0.5;exitY=1;exitDx=0;exitDy=0;" edge="1" parent="1">
          <mxGeometry width="50" height="50" relative="1" as="geometry">
            <mxPoint x="440" y="1080" as="sourcePoint" />
            <mxPoint x="440" y="1130" as="targetPoint" />
          </mxGeometry>
        </mxCell>
        <mxCell id="R0VVPQPp4cUmf98DWxHz-57" value="Vyjet peníze na výběrní slot" style="rounded=0;whiteSpace=wrap;html=1;fontSize=17;fillColor=#d5e8d4;strokeColor=#82b366;" vertex="1" parent="1">
          <mxGeometry x="335" y="1130" width="210" height="70" as="geometry" />
        </mxCell>
        <mxCell id="R0VVPQPp4cUmf98DWxHz-64" value="" style="endArrow=classic;html=1;rounded=0;fontSize=17;exitX=0.5;exitY=1;exitDx=0;exitDy=0;" edge="1" parent="1" source="R0VVPQPp4cUmf98DWxHz-57">
          <mxGeometry width="50" height="50" relative="1" as="geometry">
            <mxPoint x="450" y="1090" as="sourcePoint" />
            <mxPoint x="440" y="1250" as="targetPoint" />
          </mxGeometry>
        </mxCell>
        <mxCell id="R0VVPQPp4cUmf98DWxHz-65" value="Napsat hlášku &quot;výběr proběhl v pořádku&quot;" style="rounded=0;whiteSpace=wrap;html=1;fontSize=17;fillColor=#fff2cc;strokeColor=#d6b656;" vertex="1" parent="1">
          <mxGeometry x="370" y="1250" width="140" height="70" as="geometry" />
        </mxCell>
        <mxCell id="R0VVPQPp4cUmf98DWxHz-66" value="" style="endArrow=classic;html=1;rounded=0;fontSize=17;edgeStyle=orthogonalEdgeStyle;entryX=1;entryY=0.5;entryDx=0;entryDy=0;exitX=0.5;exitY=1;exitDx=0;exitDy=0;" edge="1" parent="1" source="R0VVPQPp4cUmf98DWxHz-65" target="R0VVPQPp4cUmf98DWxHz-49">
          <mxGeometry width="50" height="50" relative="1" as="geometry">
            <mxPoint x="380" y="1280" as="sourcePoint" />
            <mxPoint x="430" y="1230" as="targetPoint" />
          </mxGeometry>
        </mxCell>
      </root>
    </mxGraphModel>
  </diagram>
</mxfile>
